HIERARCHY
ROOT Hips
{
	OFFSET 0.000000 100.481300 0.000000
	CHANNELS 6 Xposition Yposition Zposition Xrotation Yrotation Zrotation
	JOINT Spine
	{
		OFFSET -0.279200 12.230698 -2.892100
		CHANNELS 3 Xrotation Yrotation Zrotation
		JOINT Spine1
		{
			OFFSET -0.325700 14.269203 -3.374200
			CHANNELS 3 Xrotation Yrotation Zrotation
			JOINT Spine2
			{
				OFFSET -0.372300 16.307602 -0.352600
				CHANNELS 3 Xrotation Yrotation Zrotation
				JOINT Neck
				{
					OFFSET -0.418800 17.814194 8.416900
					CHANNELS 3 Xrotation Yrotation Zrotation
					JOINT Head
					{
						OFFSET 0.000000 7.031097 3.806800
						CHANNELS 3 Xrotation Yrotation Zrotation
						JOINT HeadTop_End
						{
							OFFSET 0.000000 24.646606 12.978600
							CHANNELS 3 Xrotation Yrotation Zrotation
							End Site
							{
								OFFSET 0.000000 27.854965 0.000000
							}
						}
					}
				}
				JOINT LeftShoulder
				{
					OFFSET 16.952999 14.495407 -7.737500
					CHANNELS 3 Xrotation Yrotation Zrotation
					JOINT LeftArm
					{
						OFFSET 9.308998 -2.777710 0.208600
						CHANNELS 3 Xrotation Yrotation Zrotation
						JOINT LeftForeArm
						{
							OFFSET 29.972298 0.000000 0.000000
							CHANNELS 3 Xrotation Yrotation Zrotation
							JOINT LeftHand
							{
								OFFSET 26.026505 0.000000 0.000000
								CHANNELS 3 Xrotation Yrotation Zrotation
								JOINT LeftHandThumb1
								{
									OFFSET 12.240501 -7.147949 9.207150
									CHANNELS 3 Xrotation Yrotation Zrotation
									JOINT LeftHandThumb2
									{
										OFFSET 4.138618 -2.389435 2.389433
										CHANNELS 3 Xrotation Yrotation Zrotation
										JOINT LeftHandThumb3
										{
											OFFSET 2.726913 -1.574387 1.574386
											CHANNELS 3 Xrotation Yrotation Zrotation
											JOINT LeftHandThumb4
											{
												OFFSET 3.941010 -2.275345 2.275342
												CHANNELS 3 Xrotation Yrotation Zrotation
												End Site
												{
													OFFSET -0.005798 5.087799 0.009903
												}
											}
										}
									}
								}
								JOINT LeftHandIndex1
								{
									OFFSET 24.424698 -1.985611 5.953459
									CHANNELS 3 Xrotation Yrotation Zrotation
									JOINT LeftHandIndex2
									{
										OFFSET 6.426697 0.000000 0.000000
										CHANNELS 3 Xrotation Yrotation Zrotation
										JOINT LeftHandIndex3
										{
											OFFSET 5.337898 0.000000 0.000000
											CHANNELS 3 Xrotation Yrotation Zrotation
											JOINT LeftHandIndex4
											{
												OFFSET 4.409401 0.000000 0.000000
												CHANNELS 3 Xrotation Yrotation Zrotation
												End Site
												{
													OFFSET 0.000000 4.409363 0.014373
												}
											}
										}
									}
								}
								JOINT LeftHandMiddle1
								{
									OFFSET 23.810104 0.000000 0.000000
									CHANNELS 3 Xrotation Yrotation Zrotation
									JOINT LeftHandMiddle2
									{
										OFFSET 7.176498 0.000000 0.000000
										CHANNELS 3 Xrotation Yrotation Zrotation
										JOINT LeftHandMiddle3
										{
											OFFSET 6.774902 0.000000 0.000000
											CHANNELS 3 Xrotation Yrotation Zrotation
											JOINT LeftHandMiddle4
											{
												OFFSET 5.403328 0.000000 0.000000
												CHANNELS 3 Xrotation Yrotation Zrotation
												End Site
												{
													OFFSET -0.027702 5.403244 0.017414
												}
											}
										}
									}
								}
								JOINT LeftHandRing1
								{
									OFFSET 22.908401 -0.839279 -6.020567
									CHANNELS 3 Xrotation Yrotation Zrotation
									JOINT LeftHandRing2
									{
										OFFSET 6.337502 0.000000 0.000000
										CHANNELS 3 Xrotation Yrotation Zrotation
										JOINT LeftHandRing3
										{
											OFFSET 5.779297 0.000000 0.000000
											CHANNELS 3 Xrotation Yrotation Zrotation
											JOINT LeftHandRing4
											{
												OFFSET 4.965698 0.000000 0.000000
												CHANNELS 3 Xrotation Yrotation Zrotation
												End Site
												{
													OFFSET 0.000000 4.965668 0.016186
												}
											}
										}
									}
								}
								JOINT LeftHandPinky1
								{
									OFFSET 20.037003 -1.530319 -10.950146
									CHANNELS 3 Xrotation Yrotation Zrotation
									JOINT LeftHandPinky2
									{
										OFFSET 5.254700 0.000000 0.000000
										CHANNELS 3 Xrotation Yrotation Zrotation
										JOINT LeftHandPinky3
										{
											OFFSET 4.810204 0.000000 0.000000
											CHANNELS 3 Xrotation Yrotation Zrotation
											JOINT LeftHandPinky4
											{
												OFFSET 3.647202 0.000000 0.000000
												CHANNELS 3 Xrotation Yrotation Zrotation
												End Site
												{
													OFFSET 0.000000 3.647186 0.011889
												}
											}
										}
									}
								}
							}
						}
					}
				}
				JOINT RightShoulder
				{
					OFFSET -15.141001 14.495407 -7.737500
					CHANNELS 3 Xrotation Yrotation Zrotation
					JOINT RightArm
					{
						OFFSET -9.308998 -2.777710 0.208500
						CHANNELS 3 Xrotation Yrotation Zrotation
						JOINT RightForeArm
						{
							OFFSET -29.972300 0.000000 0.000000
							CHANNELS 3 Xrotation Yrotation Zrotation
							JOINT RightHand
							{
								OFFSET -26.026505 0.000000 0.000000
								CHANNELS 3 Xrotation Yrotation Zrotation
								JOINT RightHandThumb1
								{
									OFFSET -12.240601 -7.148026 9.207092
									CHANNELS 3 Xrotation Yrotation Zrotation
									JOINT RightHandThumb2
									{
										OFFSET -4.138618 -2.389435 2.389433
										CHANNELS 3 Xrotation Yrotation Zrotation
										JOINT RightHandThumb3
										{
											OFFSET -2.726974 -1.574417 1.574421
											CHANNELS 3 Xrotation Yrotation Zrotation
											JOINT RightHandThumb4
											{
												OFFSET -3.941010 -2.275345 2.275343
												CHANNELS 3 Xrotation Yrotation Zrotation
												End Site
												{
													OFFSET 0.005814 5.087799 0.009927
												}
											}
										}
									}
								}
								JOINT RightHandIndex1
								{
									OFFSET -24.424698 -1.985657 5.953444
									CHANNELS 3 Xrotation Yrotation Zrotation
									JOINT RightHandIndex2
									{
										OFFSET -6.426697 0.000000 0.000000
										CHANNELS 3 Xrotation Yrotation Zrotation
										JOINT RightHandIndex3
										{
											OFFSET -5.337898 0.000000 0.000000
											CHANNELS 3 Xrotation Yrotation Zrotation
											JOINT RightHandIndex4
											{
												OFFSET -4.409401 0.000000 0.000000
												CHANNELS 3 Xrotation Yrotation Zrotation
												End Site
												{
													OFFSET 0.000000 4.409363 0.014408
												}
											}
										}
									}
								}
								JOINT RightHandMiddle1
								{
									OFFSET -23.810097 0.000000 0.000000
									CHANNELS 3 Xrotation Yrotation Zrotation
									JOINT RightHandMiddle2
									{
										OFFSET -7.176498 0.000000 0.000000
										CHANNELS 3 Xrotation Yrotation Zrotation
										JOINT RightHandMiddle3
										{
											OFFSET -6.774902 0.000000 0.000000
											CHANNELS 3 Xrotation Yrotation Zrotation
											JOINT RightHandMiddle4
											{
												OFFSET -5.403328 0.000000 0.000000
												CHANNELS 3 Xrotation Yrotation Zrotation
												End Site
												{
													OFFSET 0.027702 5.403244 0.017457
												}
											}
										}
									}
								}
								JOINT RightHandRing1
								{
									OFFSET -22.908302 -0.839325 -6.020576
									CHANNELS 3 Xrotation Yrotation Zrotation
									JOINT RightHandRing2
									{
										OFFSET -6.337502 0.000000 0.000000
										CHANNELS 3 Xrotation Yrotation Zrotation
										JOINT RightHandRing3
										{
											OFFSET -5.779297 0.000000 0.000000
											CHANNELS 3 Xrotation Yrotation Zrotation
											JOINT RightHandRing4
											{
												OFFSET -4.965698 0.000000 0.000000
												CHANNELS 3 Xrotation Yrotation Zrotation
												End Site
												{
													OFFSET 0.000000 4.965668 0.016226
												}
											}
										}
									}
								}
								JOINT RightHandPinky1
								{
									OFFSET -20.037003 -1.530334 -10.950259
									CHANNELS 3 Xrotation Yrotation Zrotation
									JOINT RightHandPinky2
									{
										OFFSET -5.254700 0.000000 0.000000
										CHANNELS 3 Xrotation Yrotation Zrotation
										JOINT RightHandPinky3
										{
											OFFSET -4.810204 0.000000 0.000000
											CHANNELS 3 Xrotation Yrotation Zrotation
											JOINT RightHandPinky4
											{
												OFFSET -3.647202 0.000000 0.000000
												CHANNELS 3 Xrotation Yrotation Zrotation
												End Site
												{
													OFFSET 0.000000 3.647186 0.011917
												}
											}
										}
									}
								}
							}
						}
					}
				}
			}
		}
	}
	JOINT LeftUpLeg
	{
		OFFSET 15.427100 -6.655098 0.678600
		CHANNELS 3 Xrotation Yrotation Zrotation
		JOINT LeftLeg
		{
			OFFSET 4.081073 -39.591068 13.024000
			CHANNELS 3 Xrotation Yrotation Zrotation
			JOINT LeftFoot
			{
				OFFSET -4.081074 -37.707932 -15.979700
				CHANNELS 3 Xrotation Yrotation Zrotation
				JOINT LeftToeBase
				{
					OFFSET 5.346399 -15.068900 20.645000
					CHANNELS 3 Xrotation Yrotation Zrotation
					JOINT LeftToe_End
					{
						OFFSET 2.754700 0.931300 11.300900
						CHANNELS 3 Xrotation Yrotation Zrotation
						End Site
						{
							OFFSET 0.000000 11.669021 0.000000
						}
					}
				}
			}
		}
	}
	JOINT RightUpLeg
	{
		OFFSET -15.569500 -6.655098 0.678600
		CHANNELS 3 Xrotation Yrotation Zrotation
		JOINT RightLeg
		{
			OFFSET -4.081825 -39.591045 13.023800
			CHANNELS 3 Xrotation Yrotation Zrotation
			JOINT RightFoot
			{
				OFFSET 4.081824 -37.707954 -15.979600
				CHANNELS 3 Xrotation Yrotation Zrotation
				JOINT RightToeBase
				{
					OFFSET -5.346400 -15.068900 20.645000
					CHANNELS 3 Xrotation Yrotation Zrotation
					JOINT RightToe_End
					{
						OFFSET -2.754700 0.931300 11.300900
						CHANNELS 3 Xrotation Yrotation Zrotation
						End Site
						{
							OFFSET 0.000000 11.669021 0.000000
						}
					}
				}
			}
		}
	}
}
MOTION
Frames: 4
Frame Time: 0.033333
4.789842 91.843315 20.405273 -5.704084 -31.013830 -1.663920 2.326290 -1.096464 1.340651 5.309867 -2.149374 1.644239 5.316044 -2.109299 1.676272 -2.841799 6.186589 -0.390139 8.869218 30.176247 -12.075872 0.000001 0.000000 0.000000 0.784808 1.505910 -8.676032 -14.664184 -42.210450 -52.186993 0.000023 -67.423393 0.000014 -83.216361 -4.392032 5.556805 -1.556537 -5.132959 4.836066 3.153594 -0.593971 0.014088 -1.004689 -2.687803 2.088925 0.000002 0.000001 -0.000003 0.532246 2.659069 -22.633942 0.532911 2.660714 -22.648680 0.134449 1.356758 -11.318154 -0.000003 0.000001 -0.000002 0.531506 2.657293 -22.617924 0.533667 2.662491 -22.664694 0.134456 1.356758 -11.318153 0.000000 0.000001 0.000001 0.532246 2.659069 -22.633942 0.532909 2.660716 -22.648680 0.134448 1.356756 -11.318155 -0.000001 -0.000001 -0.000000 2.084419 6.406591 -22.246263 0.538128 -1.398212 -23.120913 0.134440 1.356762 -11.318146 0.000002 -0.000002 -0.000000 4.949701 18.767234 9.460052 11.241164 26.434473 41.387576 0.000070 100.206648 -0.000088 0.840695 -11.445482 -25.156558 -1.875003 -5.643921 -6.906730 6.158619 -26.221926 -1.325352 -0.492206 -8.632798 -3.006070 -0.000002 0.000005 0.000001 0.678883 -3.001516 25.484008 0.678878 -3.001537 25.484001 0.171686 -1.538635 12.733110 -0.000001 -0.000000 0.000002 0.678884 -3.001516 25.484006 0.678880 -3.001538 25.483998 0.171685 -1.538639 12.733115 0.000001 0.000003 0.000001 0.678881 -3.001514 25.484016 0.678883 -3.001543 25.483999 0.171689 -1.538631 12.733114 -0.000001 0.000002 -0.000000 0.678883 -3.001516 25.484006 0.678881 -3.001542 25.483999 0.171685 -1.538630 12.733118 -0.000000 -0.000000 0.000001 -17.960691 11.381537 13.905242 19.921285 6.144037 2.391991 4.493673 0.739043 -11.677248 -0.254164 0.000004 -0.000001 0.000000 -0.000001 0.000000 -2.041736 -6.132768 -10.380924 22.622570 8.620191 -4.975935 -17.521121 2.625622 10.556744 -0.043472 0.000005 0.000002 -0.000000 0.000001 0.000000 
4.807557 91.850319 20.394665 -5.712928 -30.870375 -1.613197 2.308779 -1.117098 1.320442 5.272251 -2.196622 1.645305 5.278314 -2.157131 1.678376 -2.725953 6.191765 -0.409046 8.784491 30.216467 -11.977028 0.000000 0.000000 -0.000000 0.794512 1.454517 -8.699597 -14.590385 -42.234427 -52.104180 -0.000028 -67.253239 -0.000042 -83.047252 -4.481543 5.656874 -1.556523 -5.133232 4.836039 3.153664 -0.593143 0.014155 -1.004640 -2.687401 2.088967 0.000000 -0.000001 -0.000001 0.532361 2.659331 -22.636359 0.532702 2.660186 -22.644000 0.134394 1.356480 -11.315819 0.000000 0.000001 0.000000 0.531623 2.657559 -22.620342 0.533443 2.661971 -22.660010 0.134411 1.356478 -11.315825 -0.000003 -0.000001 0.000001 0.532361 2.659331 -22.636359 0.532705 2.660187 -22.643998 0.134387 1.356485 -11.315808 0.000004 -0.000002 -0.000001 2.084698 6.406802 -22.248713 0.537902 -1.398728 -23.116234 0.134400 1.356480 -11.315819 -0.000002 -0.000003 -0.000000 4.966139 18.823650 9.426534 11.129508 26.340973 41.513313 0.000135 100.189156 -0.000174 0.712059 -11.546055 -24.945651 -1.874772 -5.627401 -6.904184 6.163265 -26.284566 -1.329258 -0.489807 -8.664016 -3.009425 -0.000002 0.000006 0.000001 0.678892 -3.001540 25.484008 0.678888 -3.001528 25.484008 0.171687 -1.538647 12.733112 -0.000001 -0.000001 0.000003 0.678892 -3.001539 25.484006 0.678889 -3.001528 25.484006 0.171682 -1.538649 12.733114 -0.000001 0.000001 -0.000003 0.678889 -3.001537 25.484008 0.678891 -3.001534 25.484006 0.171689 -1.538645 12.733111 0.000003 -0.000001 0.000002 0.678892 -3.001540 25.484006 0.678890 -3.001532 25.484008 0.171691 -1.538646 12.733106 0.000001 0.000001 0.000004 -17.982167 11.429629 13.796843 19.855404 6.019857 2.390798 4.560131 0.720649 -11.588092 -0.253512 0.000003 -0.000003 0.000000 0.000001 0.000000 -2.048100 -6.351444 -10.421340 22.641276 8.614325 -5.082813 -17.549949 2.706158 10.627213 -0.044712 0.000000 0.000002 -0.000000 0.000000 -0.000000 
4.797461 91.789619 20.324207 -5.668326 -30.776392 -1.549405 2.299460 -1.117390 1.292780 5.245920 -2.202185 1.635813 5.251683 -2.163065 1.669801 -2.678890 6.180231 -0.430985 8.615864 30.155435 -11.818007 0.000000 0.000000 0.000000 0.800209 1.427893 -8.689179 -14.569422 -42.387215 -52.049009 -0.000030 -67.102333 -0.000027 -82.882713 -4.714247 5.821871 -1.556414 -5.125148 4.837233 3.154634 -0.583237 0.015068 -1.004121 -2.682462 2.089521 0.000003 0.000001 -0.000000 0.531399 2.657010 -22.615485 0.531370 2.656998 -22.615296 0.134057 1.354785 -11.301491 0.000001 -0.000000 0.000000 0.530646 2.655242 -22.599470 0.532114 2.658788 -22.631316 0.134051 1.354784 -11.301496 0.000001 -0.000001 -0.000001 0.531399 2.657010 -22.615485 0.531374 2.656998 -22.615298 0.134059 1.354782 -11.301488 -0.000000 -0.000001 -0.000000 2.082360 6.405037 -22.227672 0.536563 -1.401912 -23.087636 0.134044 1.354789 -11.301481 -0.000001 -0.000002 -0.000002 4.968024 18.809697 9.388615 11.048438 26.300048 41.657033 -0.000277 100.195569 0.000275 0.473526 -11.497919 -24.871403 -1.874476 -5.608281 -6.901220 6.170925 -26.379526 -1.334290 -0.485970 -8.711368 -3.014096 -0.000001 0.000002 0.000002 0.678875 -3.001491 25.483620 0.678875 -3.001492 25.483653 0.171667 -1.538625 12.732943 0.000002 -0.000001 0.000004 0.678876 -3.001490 25.483615 0.678875 -3.001493 25.483646 0.171665 -1.538622 12.732946 -0.000002 -0.000001 0.000002 0.678877 -3.001491 25.483617 0.678873 -3.001496 25.483649 0.171672 -1.538622 12.732945 -0.000000 0.000002 0.000003 0.678875 -3.001491 25.483615 0.678873 -3.001496 25.483649 0.171670 -1.538620 12.732944 -0.000000 -0.000002 0.000000 -18.148311 11.414172 13.777031 19.931448 5.919535 2.385792 4.599343 0.712459 -11.566773 -0.247705 0.000003 0.000003 -0.000000 0.000001 0.000000 -2.182618 -6.312758 -10.397609 22.867511 8.604433 -5.123561 -17.641040 2.581219 10.578944 -0.046487 -0.000014 -0.000000 -0.000000 -0.000000 -0.000000 
4.758803 91.589424 20.164589 -5.585640 -30.876389 -1.457463 2.297205 -1.089131 1.206525 5.229832 -2.151573 1.617754 5.234587 -2.113405 1.653047 -2.675808 6.167717 -0.462027 8.527166 30.052136 -11.690652 0.000001 -0.000000 -0.000000 0.801593 1.418596 -8.639790 -14.635533 -42.498830 -52.000494 0.000021 -66.978379 0.000031 -82.694576 -4.756146 6.008757 -1.556195 -5.105749 4.840120 3.156643 -0.562938 0.016945 -1.003075 -2.672318 2.090623 0.000000 0.000002 -0.000000 0.528299 2.649601 -22.548780 0.528080 2.649057 -22.543946 0.133202 1.350573 -11.265868 -0.000001 -0.000000 -0.000003 0.527548 2.647827 -22.532765 0.528835 2.650835 -22.559968 0.133196 1.350578 -11.265863 -0.000001 0.000001 0.000003 0.528299 2.649601 -22.548777 0.528084 2.649059 -22.543944 0.133193 1.350577 -11.265863 0.000003 0.000000 0.000003 2.074842 6.399430 -22.160431 0.533181 -1.409817 -23.016513 0.133204 1.350571 -11.265869 -0.000004 -0.000002 -0.000002 4.962086 18.766481 9.361483 11.010065 26.413569 41.738094 0.000315 100.189989 -0.000336 0.275747 -11.371590 -25.078448 -1.874491 -5.608129 -6.901192 6.173916 -26.415943 -1.336191 -0.484501 -8.729507 -3.015854 0.000003 -0.000001 -0.000003 0.678707 -3.001152 25.480586 0.678722 -3.001195 25.480873 0.171643 -1.538458 12.731537 -0.000001 -0.000000 0.000000 0.678708 -3.001151 25.480582 0.678719 -3.001197 25.480869 0.171651 -1.538450 12.731537 0.000001 -0.000001 0.000004 0.678704 -3.001154 25.480589 0.678723 -3.001197 25.480868 0.171644 -1.538456 12.731535 -0.000000 -0.000002 0.000000 0.678707 -3.001152 25.480582 0.678718 -3.001200 25.480868 0.171643 -1.538455 12.731533 0.000001 -0.000004 -0.000001 -18.508006 11.382995 13.886220 20.305346 5.882639 2.401080 4.524932 0.732971 -11.682975 -0.226310 0.000006 -0.000001 -0.000000 0.000001 -0.000000 -2.650913 -6.030552 -10.254389 23.587386 8.568865 -5.342184 -17.894824 2.379330 10.523157 -0.049326 -0.000002 -0.000000 -0.000000 -0.000000 -0.000000 
